<?xml version="1.0" standalone="no"?>
<!DOCTYPE svg PUBLIC "-//W3C//DTD SVG 20010904//EN"
 "http://www.w3.org/TR/2001/REC-SVG-20010904/DTD/svg10.dtd">
<svg version="1.0" xmlns="http://www.w3.org/2000/svg"
 width="300.000000pt" height="300.000000pt" viewBox="0 0 300.000000 300.000000"
 preserveAspectRatio="xMidYMid meet">
<metadata>
Created by potrace 1.11, written by Peter Selinger 2001-2013
</metadata>
<g transform="translate(0.000000,300.000000) scale(0.100000,-0.100000)"
fill="#000000" stroke="none">
<path d="M2125 2930 c-2 -4 -22 -6 -44 -6 -21 1 -37 -2 -35 -5 3 -6 -31 -17
-71 -24 -5 -1 -21 -7 -35 -12 -14 -6 -28 -10 -31 -9 -4 0 -15 -6 -25 -15 -11
-9 -34 -21 -51 -29 -18 -7 -33 -16 -33 -21 0 -5 -6 -9 -12 -9 -7 0 -31 -16
-52 -35 -22 -19 -43 -32 -47 -29 -4 2 -11 -5 -14 -17 -4 -11 -9 -18 -12 -15
-3 3 -21 -12 -40 -32 -20 -20 -39 -36 -44 -35 -5 2 -5 -5 -2 -14 4 -10 2 -14
-4 -10 -6 4 -13 -2 -16 -13 -3 -11 -13 -20 -22 -20 -9 0 -13 -4 -10 -10 3 -5
1 -10 -5 -10 -6 0 -8 -4 -5 -10 3 -5 -1 -10 -10 -10 -9 0 -19 -9 -22 -20 -3
-11 -10 -20 -15 -20 -5 0 -7 -4 -3 -10 3 -5 -5 -20 -17 -32 -13 -13 -22 -27
-20 -32 2 -5 -7 -19 -18 -31 -16 -17 -18 -25 -9 -30 8 -6 5 -13 -12 -27 -13
-11 -17 -16 -9 -12 12 6 13 5 3 -8 -7 -8 -10 -18 -6 -21 3 -4 1 -7 -6 -7 -7 0
-9 -4 -6 -10 3 -5 1 -10 -5 -10 -7 0 -9 -7 -6 -16 5 -12 2 -15 -11 -10 -15 5
-15 4 1 -9 11 -8 15 -15 9 -15 -6 0 -13 -7 -17 -15 -3 -9 0 -15 9 -15 8 0 14
3 13 8 -1 4 3 17 10 28 6 12 9 23 7 26 -3 3 4 13 15 23 11 10 20 26 20 36 0
10 6 22 14 26 14 8 16 12 16 34 0 5 5 7 12 3 6 -4 8 -3 5 3 -4 6 7 28 23 49
16 21 30 42 30 46 0 8 22 36 48 63 6 8 12 19 12 26 0 7 3 9 7 6 3 -4 17 8 30
26 13 17 27 31 31 31 4 -1 6 2 4 7 -1 5 2 9 8 9 5 0 25 15 44 33 50 46 86 76
86 71 0 -3 6 0 13 6 47 40 60 49 67 45 4 -3 10 2 14 10 3 8 14 15 25 15 11 0
23 5 26 10 4 6 11 8 16 5 5 -4 9 -1 9 4 0 6 11 11 25 11 14 0 25 4 25 9 0 6 9
8 20 6 11 -2 20 0 20 5 0 5 7 7 15 4 8 -4 15 -2 15 4 0 6 8 9 18 7 9 -2 17 -4
17 -5 0 -1 8 -3 18 -5 9 -2 17 2 17 8 0 7 5 5 10 -3 5 -8 10 -11 10 -6 0 5 7
3 15 -4 13 -11 14 -10 10 2 -5 12 0 15 19 13 26 -3 39 14 27 33 -8 13 -100 22
-106 12z m-701 -545 c-4 -8 -11 -15 -16 -15 -6 0 -5 6 2 15 7 8 14 15 16 15 2
0 1 -7 -2 -15z"/>
<path d="M2537 2714 c-1 -1 -31 -5 -67 -8 -65 -7 -105 -13 -105 -16 0 -2 -37
-11 -65 -15 -14 -1 -25 -4 -25 -5 0 -1 -7 -3 -15 -5 -8 -3 -22 -6 -30 -8 -16
-4 -42 -14 -78 -28 -13 -5 -34 -6 -46 -3 -14 3 -38 -1 -55 -11 -17 -9 -37 -13
-43 -9 -7 4 -8 3 -4 -4 5 -8 -1 -12 -18 -12 -14 0 -28 -5 -31 -11 -4 -6 -14
-8 -22 -5 -8 3 -11 1 -8 -4 3 -6 2 -10 -4 -10 -14 0 -65 -49 -59 -55 3 -3 -8
-20 -23 -36 -16 -17 -29 -38 -29 -46 0 -8 -5 -11 -12 -7 -7 4 -8 3 -4 -5 4 -6
3 -17 -2 -24 -5 -7 -8 -20 -7 -29 2 -10 -2 -21 -7 -25 -7 -4 -8 -1 -4 8 4 8 1
6 -8 -5 -11 -13 -12 -24 -6 -37 7 -12 6 -20 -2 -25 -7 -4 -8 -3 -4 4 4 7 2 12
-3 12 -15 0 -14 -13 2 -29 10 -11 9 -13 -5 -8 -22 8 -23 3 -2 -17 14 -15 14
-16 -3 -16 -10 0 -14 -3 -8 -8 12 -8 14 -47 3 -57 -4 -4 -2 -19 3 -34 6 -14
10 -28 10 -30 0 -2 -28 -17 -63 -34 -35 -16 -73 -38 -85 -49 -12 -12 -27 -17
-34 -13 -8 6 -10 4 -5 -4 5 -7 0 -18 -10 -26 -16 -11 -17 -16 -6 -27 11 -11
13 -10 10 2 -2 8 2 14 7 15 6 0 20 6 31 13 12 6 24 8 28 5 3 -3 6 -1 6 5 0 7
7 12 16 12 8 0 25 5 37 12 28 15 67 19 67 7 0 -5 5 -9 11 -9 5 0 7 6 3 13 -4
7 -3 9 2 4 5 -5 10 -13 10 -18 1 -5 2 -10 3 -11 2 -2 5 -21 7 -43 3 -22 9 -41
14 -43 6 -2 10 -11 10 -20 0 -15 2 -15 11 -2 9 13 10 13 6 0 -3 -10 -16 -15
-41 -14 -20 1 -36 -2 -36 -6 0 -3 -19 -7 -42 -7 -24 0 -70 -3 -103 -7 -33 -4
-68 -8 -77 -9 -10 -1 -18 -6 -18 -11 0 -5 -3 -7 -6 -3 -3 3 -24 -1 -46 -9 -22
-7 -44 -11 -49 -8 -5 3 -9 0 -9 -5 0 -6 -3 -10 -7 -10 -5 1 -11 0 -15 -1 -25
-8 -35 -1 -50 35 -9 22 -17 34 -17 27 -1 -8 -6 -10 -13 -6 -9 5 -9 2 1 -9 7
-9 9 -17 3 -17 -13 0 -72 55 -72 67 0 5 -9 15 -20 23 -11 8 -20 20 -20 27 0 7
-9 13 -19 13 -15 0 -19 -5 -16 -21 3 -14 0 -19 -9 -16 -7 3 -13 -2 -13 -10 0
-9 7 -13 19 -10 10 3 16 1 13 -3 -3 -5 1 -11 7 -14 7 -3 2 -3 -12 1 -21 5 -23
4 -13 -9 7 -8 10 -18 6 -22 -4 -4 1 -4 12 0 15 6 17 4 12 -10 -5 -12 -3 -16 5
-13 7 2 12 10 10 16 -1 7 2 10 8 6 7 -4 6 -13 -2 -28 -10 -20 -10 -21 6 -8 9
8 19 11 23 7 3 -3 1 -6 -5 -6 -17 0 -15 -17 3 -24 8 -3 14 -2 12 2 -1 4 3 8 8
9 6 1 8 -10 6 -25 -4 -36 -9 -42 -30 -42 -10 0 -24 -7 -31 -15 -7 -9 -15 -13
-17 -11 -4 4 -117 -62 -171 -100 -13 -10 -22 -12 -22 -5 0 6 4 11 8 11 11 0
47 91 46 118 0 12 3 22 7 22 4 0 6 8 4 18 -1 9 1 24 6 33 5 9 5 19 1 23 -3 4
-7 21 -8 39 -1 18 -5 43 -8 57 -3 14 -9 39 -12 55 -8 36 -50 121 -64 130 -6 4
-7 12 -4 18 4 7 3 9 -1 4 -12 -10 -45 22 -45 45 0 37 -115 81 -155 59 -17 -10
-49 -8 -64 3 -12 9 -13 8 -6 -3 6 -11 2 -13 -19 -9 -14 3 -26 1 -26 -3 0 -5
-12 -9 -27 -10 -16 0 -22 -3 -14 -6 11 -5 -67 -39 -105 -47 -7 -1 -19 -8 -28
-15 -9 -7 -16 -11 -16 -8 0 6 -62 -32 -87 -53 -7 -6 -13 -8 -13 -5 0 7 -33
-21 -86 -71 -24 -22 -46 -39 -48 -37 -2 2 -7 -8 -10 -23 -4 -14 -10 -24 -13
-20 -7 6 -37 -53 -35 -66 1 -5 -3 -8 -10 -8 -6 0 -8 -3 -5 -7 4 -3 2 -12 -4
-20 -9 -10 -8 -13 2 -13 8 0 5 -6 -7 -16 -14 -11 -16 -17 -6 -21 10 -4 9 -10
-4 -30 -9 -14 -12 -23 -6 -19 17 10 21 -20 7 -48 -8 -15 -10 -24 -5 -21 6 4
10 -1 10 -9 0 -9 5 -16 10 -16 6 0 10 -10 10 -22 0 -19 2 -20 10 -8 7 12 10
12 10 1 0 -7 6 -11 15 -7 8 3 18 -2 23 -11 6 -11 11 -12 16 -4 4 6 12 11 17
11 6 0 7 -5 4 -10 -7 -12 23 -9 44 4 10 6 12 5 7 -2 -9 -15 -1 -15 25 -2 14 8
19 7 19 -2 0 -10 3 -9 9 1 5 8 16 16 24 17 31 4 57 16 57 25 0 6 4 8 8 5 5 -3
20 1 35 9 14 7 28 11 31 7 3 -3 6 0 6 6 0 7 6 12 13 12 7 0 23 9 35 20 12 11
25 20 29 20 4 0 34 29 66 64 37 41 66 64 78 63 10 -1 19 -5 19 -10 0 -4 5 -5
12 -1 8 5 9 2 5 -10 -4 -9 -3 -15 2 -11 6 3 14 -2 19 -11 6 -11 16 -15 27 -10
15 5 16 4 5 -9 -10 -12 -10 -15 0 -15 9 0 9 -4 -1 -17 -12 -15 -12 -16 1 -8 8
4 4 -3 -10 -16 -41 -41 -75 -91 -74 -110 1 -10 -4 -17 -10 -16 -6 1 -10 -6
-10 -15 1 -10 -5 -18 -14 -18 -13 0 -12 -3 4 -16 10 -8 14 -13 7 -10 -6 4 -14
2 -18 -4 -3 -5 -1 -10 4 -10 11 0 10 -35 -2 -46 -3 -4 -4 3 -2 15 2 12 0 19
-5 16 -9 -6 -8 -31 2 -41 10 -10 -3 -35 -15 -27 -6 4 -7 1 -3 -6 5 -7 11 -10
14 -7 3 3 10 2 16 -3 7 -6 12 -2 13 12 4 51 16 86 26 80 5 -3 7 -1 3 5 -7 12
31 82 46 82 5 0 7 4 4 8 -3 5 11 23 30 40 30 27 38 30 54 20 11 -7 17 -14 15
-17 -3 -2 0 -10 6 -17 7 -8 7 -14 -1 -19 -5 -3 -10 -11 -10 -16 0 -6 5 -7 10
-4 6 3 10 2 10 -4 0 -5 -5 -13 -10 -16 -7 -4 -7 -13 0 -26 6 -10 7 -18 3 -17
-4 2 -9 -1 -10 -5 -4 -13 -31 -37 -43 -37 -6 0 -8 -4 -5 -10 3 -5 1 -10 -5
-10 -6 0 -8 -4 -5 -10 3 -5 -1 -10 -10 -10 -9 0 -14 -4 -11 -9 3 -5 -1 -14 -9
-21 -8 -7 -13 -16 -10 -20 3 -4 -2 -11 -11 -14 -8 -3 -12 -10 -9 -16 3 -5 -1
-10 -9 -10 -10 0 -13 -6 -10 -15 4 -8 2 -15 -4 -15 -5 0 -13 -7 -16 -16 -6
-15 -4 -15 11 -3 14 11 13 9 -2 -12 -11 -15 -24 -24 -30 -21 -5 3 -4 -2 4 -11
8 -10 9 -17 3 -17 -6 0 -9 -9 -7 -20 2 -11 0 -18 -4 -15 -5 2 -11 -4 -14 -15
-3 -12 -1 -18 5 -14 6 4 6 -1 -1 -13 -7 -14 -7 -24 2 -33 8 -9 8 -11 1 -7 -15
9 -27 -20 -12 -29 7 -5 8 -2 3 6 -6 9 -4 11 5 5 10 -6 9 -11 -5 -22 -12 -8
-14 -13 -6 -13 11 0 11 -3 1 -15 -11 -13 -10 -14 3 -10 8 4 18 1 23 -6 5 -8 3
-10 -6 -4 -10 6 -12 3 -8 -13 4 -13 1 -22 -5 -22 -8 0 -7 -3 1 -9 8 -4 13 -11
13 -15 -3 -20 0 -26 12 -20 8 5 8 2 -2 -9 -12 -15 -11 -17 5 -18 11 0 14 -3 7
-5 -7 -3 -9 -12 -6 -20 4 -12 8 -12 21 -2 14 12 14 10 2 -12 -7 -14 -9 -22 -6
-18 9 8 46 -27 46 -45 0 -8 4 -7 10 3 8 13 10 12 10 -2 0 -11 8 -18 20 -18 12
0 20 -7 21 -17 0 -15 2 -15 8 2 8 19 9 18 12 -5 3 -20 9 -24 28 -22 18 3 22 0
18 -12 -4 -10 -1 -13 7 -10 8 3 17 0 22 -7 4 -8 3 -10 -4 -5 -7 4 -12 1 -12
-8 0 -8 -6 -17 -12 -19 -10 -4 -10 -6 0 -6 10 -1 10 -4 0 -15 -7 -8 -16 -12
-20 -10 -3 2 -4 -6 0 -18 3 -14 1 -19 -6 -14 -8 5 -10 1 -5 -10 5 -13 3 -15
-8 -9 -11 7 -11 4 1 -11 9 -10 15 -31 14 -46 0 -15 3 -25 7 -22 5 3 9 -5 9
-18 0 -16 3 -19 9 -10 6 10 10 8 14 -8 4 -15 11 -21 21 -17 9 4 20 -1 25 -11
9 -15 10 -15 11 3 1 11 4 15 6 8 3 -7 12 -9 21 -6 10 4 14 2 10 -4 -3 -5 0
-10 8 -10 8 0 15 4 15 9 0 5 11 6 25 2 14 -3 25 -2 25 3 0 5 9 10 20 11 43 4
50 6 50 14 0 4 6 8 14 8 13 0 84 66 117 110 18 23 69 35 69 16 0 -6 7 -2 15 8
8 11 15 15 15 9 0 -6 11 -13 25 -15 14 -3 22 -1 18 5 -3 5 3 6 15 3 12 -4 23
-2 28 5 5 9 11 7 21 -6 13 -18 13 -18 13 1 0 16 2 17 10 4 9 -13 10 -13 10 0
0 13 1 13 10 0 7 -10 13 -11 18 -5 4 6 14 10 22 10 8 0 18 3 21 8 4 5 9 5 13
-1 3 -6 -4 -14 -16 -17 -13 -4 -31 -14 -40 -23 -10 -8 -18 -11 -18 -6 0 5 -7
1 -15 -10 -7 -10 -18 -15 -24 -11 -6 3 -11 1 -11 -5 0 -6 -4 -8 -10 -5 -9 6
-49 -10 -60 -24 -3 -4 -17 -14 -32 -24 -16 -10 -28 -24 -28 -31 0 -8 -6 -17
-12 -20 -7 -3 -1 -3 13 -1 15 2 43 19 62 39 36 36 63 47 54 24 -2 -7 -13 -11
-23 -10 -10 2 -16 1 -12 -3 8 -8 -47 -65 -63 -65 -6 0 -7 -4 -4 -10 3 -5 1
-10 -4 -10 -6 0 -10 -6 -9 -12 2 -7 -2 -12 -9 -11 -8 2 -10 -4 -6 -14 5 -12 3
-14 -7 -8 -10 6 -12 4 -7 -8 3 -9 2 -17 -3 -19 -5 -2 -11 -14 -14 -28 -2 -14
-5 -27 -6 -30 -2 -3 -2 -8 -1 -13 0 -4 -3 -7 -7 -7 -5 0 -9 -6 -10 -12 0 -7
-3 -24 -6 -37 -4 -16 1 -32 12 -45 9 -11 11 -16 5 -12 -18 10 -16 -9 2 -28 8
-8 15 -23 15 -33 0 -15 2 -16 10 -3 8 11 10 5 8 -23 -1 -23 3 -41 11 -46 11
-7 11 -10 0 -14 -10 -4 -10 -6 -1 -6 6 -1 12 -6 12 -12 0 -5 -6 -7 -12 -3 -10
6 -10 4 0 -8 10 -13 10 -17 0 -21 -7 -3 195 -6 450 -6 518 -1 467 -9 462 74
-1 22 -3 52 -4 68 0 15 -4 27 -7 27 -3 0 -6 7 -6 15 0 8 3 15 6 15 3 0 6 11 6
24 0 13 -4 22 -9 18 -5 -3 -7 2 -3 11 3 10 3 17 -2 17 -5 0 -11 9 -14 20 -5
21 15 44 29 32 4 -4 3 0 -4 9 -6 8 -13 24 -15 35 -2 10 -12 35 -22 54 -11 19
-18 39 -17 43 1 5 -2 6 -8 2 -5 -3 -10 -2 -10 3 0 5 -12 21 -26 35 -16 16 -23
31 -18 39 4 7 3 10 -1 5 -5 -4 -17 5 -27 20 -10 16 -18 24 -18 19 0 -6 -9 0
-20 12 -12 12 -27 22 -34 22 -18 0 -50 37 -36 42 22 7 -1 34 -33 37 -59 6
-117 1 -117 -10 0 -10 -34 -6 -42 5 -9 13 22 35 44 31 10 -2 16 0 13 6 -4 5 0
9 7 10 31 2 49 8 64 23 8 9 20 14 25 11 5 -4 9 -2 9 4 0 6 8 8 18 4 9 -3 14
-3 10 2 -4 4 16 19 45 34 29 14 58 32 65 39 8 7 18 9 24 6 7 -4 8 -2 4 4 -4 7
-2 12 3 12 10 0 36 19 67 48 8 7 14 10 14 5 1 -4 7 3 15 17 8 14 14 21 15 17
0 -13 67 58 94 102 15 22 31 41 37 41 5 0 8 4 4 9 -3 5 2 16 10 24 8 9 15 20
15 26 0 6 5 11 11 11 5 0 7 5 4 10 -3 6 -2 10 2 10 8 0 30 48 41 90 7 25 9
184 3 195 -3 6 -7 15 -8 20 -19 76 -57 129 -143 200 -38 31 -116 72 -150 80
-16 4 -30 11 -30 17 0 6 -7 8 -15 5 -8 -4 -17 -2 -20 4 -4 5 -11 7 -16 4 -5
-4 -9 -1 -9 5 0 7 -6 10 -14 7 -7 -3 -25 1 -39 8 -14 7 -28 11 -31 8 -2 -3
-11 1 -19 8 -15 14 -12 25 16 86 10 22 34 21 49 -1 14 -20 8 28 -6 56 -14 27
-13 77 2 88 4 3 7 10 8 15 1 21 35 85 44 85 6 0 9 3 8 8 -2 10 36 72 45 72 5
0 6 3 4 8 -3 4 5 16 16 27 11 11 17 14 12 6 -6 -10 -2 -12 14 -6 17 5 20 3 14
-11 -5 -13 -3 -15 8 -8 19 11 40 14 34 4 -3 -4 2 -11 11 -14 10 -4 13 -2 8 7
-4 6 1 4 12 -5 16 -14 23 -15 32 -6 9 9 12 9 12 0 0 -7 5 -12 11 -12 5 0 7 6
3 13 -6 9 -4 9 7 1 21 -16 160 -2 167 16 2 5 10 6 18 3 8 -3 14 1 14 8 0 7 3
9 6 6 4 -3 18 3 32 13 13 11 30 20 38 20 11 0 69 51 76 68 2 4 7 6 11 4 5 -1
6 2 2 8 -3 5 -1 10 6 10 7 0 9 3 6 7 -4 3 1 15 10 26 13 15 14 19 3 13 -11 -6
-11 -4 1 6 9 7 16 18 15 23 -1 6 9 11 22 13 18 3 21 6 12 17 -8 9 -8 15 0 20
13 8 32 -4 25 -16 -3 -5 1 -6 9 -3 9 3 16 10 16 14 0 11 -30 34 -36 27 -3 -3
-19 8 -36 25 -16 16 -27 32 -24 35 7 7 -39 49 -75 68 -21 11 -123 26 -132 19z
m-1251 -946 c4 -7 3 -8 -4 -4 -7 4 -12 2 -12 -5 0 -7 -3 -10 -6 -6 -6 5 3 27
11 27 2 0 7 -5 11 -12z m34 -1522 c0 -3 -4 -8 -10 -11 -5 -3 -10 -1 -10 4 0 6
5 11 10 11 6 0 10 -2 10 -4z"/>
<path d="M1326 2148 c-8 -44 -10 -50 -21 -68 -8 -13 -7 -13 8 -1 9 7 14 17 11
22 -3 5 -1 9 3 9 5 0 10 12 11 27 1 15 8 30 15 35 9 6 8 8 -4 8 -11 0 -19 -11
-23 -32z"/>
<path d="M1528 2133 c-10 -3 -18 -8 -18 -13 0 -4 -15 -17 -32 -29 -18 -11 -27
-21 -21 -21 12 0 1 -18 -34 -55 -7 -7 -9 -15 -6 -19 4 -3 -2 -6 -13 -6 -16 0
-16 -2 -4 -10 12 -8 12 -10 -3 -16 -9 -3 -15 -10 -12 -14 7 -11 -5 -41 -14
-35 -4 2 -8 -2 -8 -10 0 -8 4 -12 9 -9 13 9 9 -4 -8 -20 -10 -10 -11 -16 -3
-16 8 0 8 -5 -2 -17 -13 -16 -12 -17 3 -4 10 7 15 18 11 24 -3 6 -1 7 6 3 9
-6 8 -14 -4 -32 -15 -23 -15 -24 9 -12 16 6 28 23 32 42 6 29 30 74 45 86 3 3
9 15 13 28 4 12 12 22 17 22 6 0 8 4 5 9 -3 5 1 14 9 21 8 7 15 19 15 26 0 8
5 14 10 14 14 0 33 51 23 60 -4 4 -16 5 -25 3z"/>
<path d="M2554 1692 c3 -6 -2 -16 -11 -22 -16 -10 -16 -10 3 -5 17 4 64 -25
64 -40 0 -10 -10 -4 -29 16 -14 15 -21 17 -26 8 -5 -8 -4 -10 3 -5 7 4 12 1
12 -8 0 -9 5 -16 11 -16 5 0 8 -4 4 -9 -3 -5 6 -18 20 -29 26 -21 34 -52 13
-52 -8 0 -6 -5 4 -10 9 -6 15 -18 13 -28 -2 -11 3 -19 10 -19 8 0 11 5 7 11
-3 6 -7 17 -9 25 -1 10 1 11 10 2 6 -6 12 -23 13 -37 1 -19 -3 -23 -14 -19
-13 5 -13 3 1 -13 23 -25 23 -54 0 -45 -15 6 -16 5 -3 -9 14 -15 16 -14 29 10
8 14 13 53 13 91 -1 87 -10 119 -44 155 -10 11 -18 25 -18 31 0 7 -6 12 -12
12 -7 0 -26 4 -42 8 -20 6 -27 5 -22 -3z m60 -98 c5 -14 4 -15 -9 -4 -17 14
-19 20 -6 20 5 0 12 -7 15 -16z"/>
<path d="M880 1620 c0 -5 5 -10 11 -10 5 0 7 5 4 10 -3 6 -8 10 -11 10 -2 0
-4 -4 -4 -10z"/>
<path d="M2790 1591 c0 -6 4 -12 9 -15 11 -7 9 -32 -4 -43 -4 -4 -6 -3 -2 2 8
14 -10 42 -20 32 -4 -5 -3 -11 3 -15 5 -4 10 -15 11 -24 1 -35 3 -38 21 -38
16 -1 16 -2 -1 -14 -10 -8 -14 -17 -9 -20 6 -3 12 -21 14 -40 3 -27 1 -33 -12
-29 -10 3 -9 -1 4 -11 20 -16 20 -16 0 -17 -10 0 -13 -3 -6 -6 6 -2 12 -9 12
-15 0 -6 -7 -8 -14 -5 -12 5 -13 1 -7 -16 6 -15 4 -26 -8 -35 -9 -7 -11 -11
-5 -8 6 3 11 -1 11 -8 0 -8 -6 -12 -13 -9 -7 2 -11 -3 -11 -14 1 -10 -4 -17
-11 -15 -8 1 -11 -2 -8 -7 8 -13 -4 -42 -15 -35 -5 3 -6 -2 -3 -10 4 -10 1
-16 -7 -16 -7 0 -9 -3 -5 -7 3 -4 22 10 41 30 19 20 32 37 29 37 -3 0 1 7 8
15 30 33 38 45 38 55 0 6 5 21 12 33 14 27 18 49 19 105 0 30 4 40 12 35 9 -5
9 -3 0 8 -6 8 -14 31 -18 53 -4 21 -16 47 -26 57 -20 20 -39 25 -39 10z m30
-71 c0 -5 -8 -10 -17 -10 -15 0 -16 2 -3 10 19 12 20 12 20 0z m7 -65 c0 -8
-4 -12 -9 -9 -5 3 -6 10 -3 15 9 13 12 11 12 -6z"/>
<path d="M546 1165 c-4 -14 -7 -28 -7 -32 0 -5 -8 -17 -17 -27 -9 -11 -11 -16
-4 -12 11 7 18 -20 12 -49 -1 -5 2 -7 6 -3 4 4 8 25 9 45 1 21 6 53 10 71 9
37 0 44 -9 7z"/>
<path d="M390 1089 c0 -5 -4 -7 -10 -4 -6 4 -7 -1 -3 -11 4 -11 3 -15 -5 -10
-6 3 -14 1 -18 -5 -4 -7 -3 -9 3 -6 11 7 10 -25 -1 -95 -3 -17 0 -28 7 -28 7
0 4 -7 -5 -14 -21 -15 -24 -28 -5 -20 8 3 13 -4 14 -17 2 -17 -1 -18 -13 -8
-12 10 -13 9 -8 -5 3 -9 12 -16 18 -16 7 0 18 -18 25 -40 7 -22 16 -38 21 -35
6 4 10 -1 10 -9 0 -9 7 -16 15 -16 8 0 15 -7 15 -16 0 -8 5 -12 10 -9 6 3 10
1 10 -5 0 -6 4 -9 9 -5 6 3 14 -3 20 -12 6 -10 11 -13 11 -7 0 6 -11 20 -25
32 -14 12 -25 26 -25 32 0 5 -7 10 -15 10 -14 0 -19 12 -16 33 0 4 -3 7 -7 7
-29 0 -48 221 -23 268 7 14 8 22 1 22 -5 0 -10 -5 -10 -11z"/>
<path d="M344 1023 c4 -7 2 -13 -4 -13 -6 0 -8 -4 -5 -10 3 -5 10 -10 15 -10
10 0 7 27 -5 37 -4 4 -5 2 -1 -4z"/>
<path d="M355 820 c-3 -5 -1 -10 4 -10 6 0 11 5 11 10 0 6 -2 10 -4 10 -3 0
-8 -4 -11 -10z"/>
<path d="M379 775 c17 -33 31 -51 31 -40 0 6 -10 21 -21 35 -13 17 -17 18 -10
5z"/>
<path d="M2050 670 c0 -3 6 -12 13 -19 10 -10 6 -11 -18 -6 l-30 6 30 -14 c39
-18 74 -11 68 13 -4 17 -63 35 -63 20z"/>
<path d="M304 621 c4 -6 2 -11 -3 -11 -14 0 -14 -27 -1 -35 6 -4 7 1 3 12 -3
10 -3 15 1 11 4 -3 8 -12 9 -20 4 -23 33 -58 43 -51 5 4 4 2 -3 -6 -12 -14
-37 -6 -28 9 3 5 -9 18 -27 30 l-33 22 25 -22 c14 -13 24 -26 23 -31 -2 -4 8
-17 22 -27 13 -11 22 -21 20 -24 -2 -2 5 -4 16 -4 19 0 19 1 -3 18 -16 12 -18
18 -8 17 21 0 51 -24 42 -35 -4 -4 1 -2 11 5 15 12 21 9 19 -10 -1 -3 5 -6 12
-6 23 0 13 29 -13 40 -34 15 -52 33 -43 42 4 5 2 5 -4 2 -6 -3 -18 3 -27 14
-9 10 -13 19 -9 19 4 0 0 5 -8 10 -8 5 -15 15 -15 21 0 7 -6 14 -14 17 -8 3
-11 0 -7 -7z"/>
<path d="M470 480 c0 -5 5 -10 10 -10 6 0 10 5 10 10 0 6 -4 10 -10 10 -5 0
-10 -4 -10 -10z"/>
</g>
</svg>
